<svg width="64" height="64" viewBox="0 0 64 64" fill="none" xmlns="http://www.w3.org/2000/svg">
<g id="Group">
<path id="backgroundColor" fill-rule="evenodd" clip-rule="evenodd" d="M0 32C0 14.3269 14.3269 0 32 0C49.6731 0 64 14.3269 64 32C64 49.6731 49.6731 64 32 64C14.3269 64 0 49.6731 0 32Z" fill="#E2F8FF"/>
<g id="2">
<path id="Shape" fill-rule="evenodd" clip-rule="evenodd" d="M20 32C20 38.627 25.373 44 32 44C38.627 44 44 38.627 44 32C44 25.373 38.627 20 32 20C25.373 20 20 25.373 20 32ZM42 32C42 37.523 37.5229 42 32 42C26.4771 42 22 37.523 22 32C22 26.477 26.4771 22 32 22C37.5229 22 42 26.477 42 32Z" fill="#93E5FF"/>
<path id="Shape_2" fill-rule="evenodd" clip-rule="evenodd" d="M32.6331 13.898C32.282 12.847 31.717 12.85 31.3669 13.898L29 21H35L32.6331 13.898ZM32.6331 50.102C32.282 51.153 31.717 51.15 31.3669 50.102L29 43H35L32.6331 50.102ZM49.6021 31.867C50.6499 32.217 50.6531 32.782 49.6021 33.133L42.5 35.5V29.5L49.6021 31.867ZM14.3979 33.133C13.3469 32.782 13.3499 32.217 14.3979 31.867L21.5 29.5V35.5L14.3979 33.133Z" fill="#93E5FF"/>
<path id="Shape_3" fill-rule="evenodd" clip-rule="evenodd" d="M45.8049 18.847C46.3779 17.917 46.0901 17.618 45.1531 18.1949L28.4651 28.464L18.1951 45.153C17.6221 46.0829 17.9099 46.382 18.8469 45.806L35.5349 35.5359L45.8049 18.847ZM32.5183 33.9321C31.8281 34.1172 31.0916 33.9202 30.5859 33.415C29.8044 32.634 29.804 31.3674 30.585 30.586C31.366 29.8045 32.6323 29.8041 33.4138 30.585C33.9194 31.0901 34.1172 31.8267 33.9324 32.517C33.7476 33.2074 33.2085 33.7468 32.5183 33.9321Z" fill="#00C2FF"/>
</g>
</g>
</svg>
