<svg width="48" height="48" viewBox="0 0 48 48" fill="none" xmlns="http://www.w3.org/2000/svg">
<path fill-rule="evenodd" clip-rule="evenodd" d="M0 24C0 10.7452 10.7452 0 24 0C37.2548 0 48 10.7452 48 24C48 37.2548 37.2548 48 24 48C10.7452 48 0 37.2548 0 24Z" fill="white"/>
<path fill-rule="evenodd" clip-rule="evenodd" d="M13 24C13 17.928 17.917 13 23.989 13C30.072 13 35 17.928 35 24C35 30.072 30.072 35 23.989 35C17.917 35 13 30.072 13 24ZM28.3672 19.6H31.6121C30.5562 17.785 28.873 16.377 26.8491 15.684C27.509 16.905 28.0151 18.225 28.3672 19.6ZM24 15.244C24.9128 16.564 25.6279 18.027 26.1008 19.6H21.8989C22.3718 18.027 23.0869 16.564 24 15.244ZM15.2 24C15.2 24.759 15.3101 25.496 15.4858 26.2H19.2039C19.116 25.474 19.05 24.748 19.05 24C19.05 23.252 19.116 22.526 19.2039 21.8H15.4858C15.3101 22.504 15.2 23.241 15.2 24ZM16.3879 28.4H19.6331C19.9849 29.775 20.491 31.095 21.1509 32.316C19.127 31.623 17.4438 30.226 16.3879 28.4ZM16.3879 19.6H19.6331C19.9849 18.225 20.491 16.905 21.1509 15.684C19.127 16.377 17.4438 17.774 16.3879 19.6ZM24 32.756C23.0869 31.436 22.3718 29.973 21.8989 28.4H26.1008C25.6279 29.973 24.9128 31.436 24 32.756ZM21.25 24C21.25 24.748 21.3269 25.474 21.426 26.2H26.574C26.6731 25.474 26.75 24.748 26.75 24C26.75 23.252 26.6731 22.515 26.574 21.8H21.426C21.3269 22.515 21.25 23.252 21.25 24ZM26.8491 32.316C27.509 31.095 28.0151 29.775 28.3672 28.4H31.6121C30.5562 30.215 28.873 31.623 26.8491 32.316ZM28.95 24C28.95 24.748 28.8838 25.474 28.7959 26.2H32.5139C32.6899 25.496 32.7998 24.759 32.7998 24C32.7998 23.241 32.6899 22.504 32.5139 21.8H28.7959C28.8838 22.526 28.95 23.252 28.95 24Z" fill="#A0B0B9"/>
</svg>
