<svg width="70" height="10" viewBox="0 0 70 10" fill="none" xmlns="http://www.w3.org/2000/svg">
<path d="M35 8.2918L31.9098 10L32.5 6.38197L30 3.81966L33.4549 3.2918L35 0L36.5451 3.2918L40 3.81966L37.5 6.38197L38.0902 10L35 8.2918Z" fill="white"/>
<path d="M20 8.2918L16.9098 10L17.5 6.38197L15 3.81966L18.4549 3.2918L20 0L21.5451 3.2918L25 3.81966L22.5 6.38197L23.0902 10L20 8.2918Z" fill="white"/>
<path d="M5 8.2918L1.90983 10L2.5 6.38197L0 3.81966L3.45492 3.2918L5 0L6.54508 3.2918L10 3.81966L7.5 6.38197L8.09017 10L5 8.2918Z" fill="white"/>
<path d="M50 8.2918L46.9098 10L47.5 6.38197L45 3.81966L48.4549 3.2918L50 0L51.5451 3.2918L55 3.81966L52.5 6.38197L53.0902 10L50 8.2918Z" fill="white"/>
<path d="M65 8.2918L61.9098 10L62.5 6.38197L60 3.81966L63.4549 3.2918L65 0L66.5451 3.2918L70 3.81966L67.5 6.38197L68.0902 10L65 8.2918Z" fill="#05739F"/>
<mask id="mask0" mask-type="alpha" maskUnits="userSpaceOnUse" x="60" y="0" width="10" height="10">
<path fill-rule="evenodd" clip-rule="evenodd" d="M65 8.2918L61.9098 10L62.5 6.38197L60 3.81966L63.4549 3.2918L65 0L66.5451 3.2918L70 3.81966L67.5 6.38197L68.0902 10L65 8.2918Z" fill="white"/>
</mask>
<g mask="url(#mask0)">
<path d="M60 0H66V10H60V0Z" fill="white"/>
</g>
</svg>
