<svg width="17" height="20" viewBox="0 0 17 20" fill="none" xmlns="http://www.w3.org/2000/svg">
<g id="calendar">
<path id="Icone-Depart" fill-rule="evenodd" clip-rule="evenodd" d="M3.99854 4.01138V0H4.99829V4.01138H3.99854ZM14.0081 4.97678L14.0115 3.01105L16.9966 3.01385L17 20H0.00146484L0.00244141 16.0002L0.999268 15.9945L1.0127 19.0092L16.0005 19.0067L16.0093 6.93909L1.00977 6.96326V15.9719L0.0012207 15.9857L0.00268555 3.01385L2.97192 3.01508L2.97803 4.97183L6.00171 4.97031L6.00806 3.00375L11.0005 3.01587V4.97678H14.0081ZM11.9956 0V4.01138H12.9954V0H11.9956ZM14 15H11V17H14V15ZM7 15H10V17H7V15ZM6 15H3V17H6V15ZM11 12H14V14H11V12ZM10 12H7V14H10V12ZM3 12H6V14H3V12ZM14 9H11V11H14V9ZM7 9H10V11H7V9ZM6 9H3V11H6V9Z" fill="#1BA6D2"/>
</g>
</svg>
