<svg width="18" height="32" viewBox="0 0 18 32" fill="none" xmlns="http://www.w3.org/2000/svg">
<path d="M0.308416 16.7376L14.7216 31.6791C14.9279 31.8927 15.1652 32 15.4331 32C15.7011 32 15.9384 31.8927 16.1445 31.6791L17.6907 30.0759C17.8972 29.8621 18 29.6166 18 29.3383C18 29.0601 17.8972 28.8146 17.6907 28.6008L5.53566 15.9997L17.6907 3.39826C17.8972 3.18455 18 2.9386 18 2.66109C18 2.38291 17.8972 2.13696 17.6907 1.92324L16.1444 0.32052C15.9383 0.106577 15.701 0 15.433 0C15.1651 0 14.9279 0.106802 14.7216 0.32052L0.309174 15.2621C0.10313 15.4758 0 15.7218 0 15.9997C0 16.2775 0.102373 16.5235 0.308416 16.7376Z" fill="#5B5B5C" fill-opacity="0.2"/>
</svg>
